<?xml version="1.0" encoding="UTF-8" standalone="no"?>
<svg height="48" width="48" viewBox="0 -205 48 48" version="1.1" xmlns="http://www.w3.org/2000/svg">
  <g transform="matrix(0.07207207,0,0,-0.07207207,0,-158.87388)">
    <path style="fill:#999999" d="m 501,547 -334,-336 70,-71 335,335 62,-61 q 13,-13 22.5,-9 9.5,4 9.5,23 l 0,181 q 0,12 -9,21.5 -9,9.5 -22,9.5 l -181,0 q -19,0 -23.5,-9.5 Q 426,621 439,608 Z m 37,-465 0,227 76,0 0,-253 Q 614,22 590,-2 566,-26 532,-26 L 82,-26 Q 48,-26 24,-2 0,22 0,56 l 0,451 q 0,34 24,58 24,24 58,23 l 277,0 0,-76 -251,0 Q 96,512 86.5,502.5 77,493 77,481 L 77,82 Q 77,70 86.5,60.5 96,51 108,51 l 399,0 q 12,0 21.5,9.5 Q 538,70 538,82 Z" />
  </g>
</svg>
